<svg width="64" height="64" viewBox="0 0 64 64" fill="none" xmlns="http://www.w3.org/2000/svg">
<path d="M0 14C0 6.26801 6.26801 0 14 0H50C57.732 0 64 6.26801 64 14V50C64 57.732 57.732 64 50 64H14C6.26801 64 0 57.732 0 50V14Z" fill="black"/>
<path d="M41.5 13.8254C45 8.83065 14.6406 24 20.2529 24.9711C24 22.9724 29.6966 20.4147 30.7206 20.5C26.215 26.4167 23.2966 30.3983 22.7846 31.7731C34.8678 26.0387 40.3173 25.476 41 26.5C40.8293 27.012 38.5389 29.16 36.6086 31.0051C34.2529 33.2569 32.7686 35.1864 32.2566 36.3811C33.7073 36.4664 37.7882 34.0923 45.8246 27.6771C56.999 18.7569 38.8273 23.4957 30.7206 25.8851L41.5 13.8254Z" fill="white"/>
<path d="M22.3206 43.2451C23.5494 39.5587 27.0993 35.3944 28.7206 33.7731C26.4678 33.7731 21 36.5 19.2726 38.8691C17.639 41.1096 14.982 49.4744 14.6406 51.181C20.7846 46.4706 32.2316 42.3782 40.2529 40.7569C38.8193 38.5041 29.7446 41.3677 22.3206 43.2451Z" fill="white"/>
<path d="M41.5 13.8254C45 8.83065 14.6406 24 20.2529 24.9711C24 22.9724 29.6966 20.4147 30.7206 20.5C26.215 26.4167 23.2966 30.3983 22.7846 31.7731C34.8678 26.0387 40.3173 25.476 41 26.5C40.8293 27.012 38.5389 29.16 36.6086 31.0051C34.2529 33.2569 32.7686 35.1864 32.2566 36.3811C33.7073 36.4664 37.7882 34.0923 45.8246 27.6771C56.999 18.7569 38.8273 23.4957 30.7206 25.8851L41.5 13.8254Z" stroke="white" stroke-width="1.024"/>
<path d="M22.3206 43.2451C23.5494 39.5587 27.0993 35.3944 28.7206 33.7731C26.4678 33.7731 21 36.5 19.2726 38.8691C17.639 41.1096 14.982 49.4744 14.6406 51.181C20.7846 46.4706 32.2316 42.3782 40.2529 40.7569C38.8193 38.5041 29.7446 41.3677 22.3206 43.2451Z" stroke="white" stroke-width="1.024"/>
</svg>
